<?xml version="1.0" encoding="UTF-8" standalone="no"?>
<!-- Created with Inkscape (http://www.inkscape.org/) -->

<svg
   xmlns:dc="http://purl.org/dc/elements/1.1/"
   xmlns:cc="http://creativecommons.org/ns#"
   xmlns:rdf="http://www.w3.org/1999/02/22-rdf-syntax-ns#"
   xmlns:svg="http://www.w3.org/2000/svg"
   xmlns="http://www.w3.org/2000/svg"
   xmlns:xlink="http://www.w3.org/1999/xlink"
   xmlns:sodipodi="http://sodipodi.sourceforge.net/DTD/sodipodi-0.dtd"
   xmlns:inkscape="http://www.inkscape.org/namespaces/inkscape"
   width="200"
   height="200"
   viewBox="0 0 200 200"
   id="svg2"
   version="1.1"
   inkscape:version="0.91 r13725"
   sodipodi:docname="fhq2017.svg"
   inkscape:export-filename="fhq2017.png"
   inkscape:export-xdpi="90"
   inkscape:export-ydpi="90">
  <defs
     id="defs4">
    <linearGradient
       id="linearGradient4228"
       inkscape:collect="always">
      <stop
         id="stop4230"
         offset="0"
         style="stop-color:#9f9f9f;stop-opacity:1;" />
      <stop
         id="stop4232"
         offset="1"
         style="stop-color:#9f9f9f;stop-opacity:0;" />
    </linearGradient>
    <inkscape:perspective
       id="perspective3927"
       inkscape:persp3d-origin="153.03301 : -83.84606 : 1"
       inkscape:vp_z="253.03301 : -50.512728 : 1"
       inkscape:vp_y="0 : 999.99998 : 0"
       inkscape:vp_x="53.033009 : -50.512728 : 1"
       sodipodi:type="inkscape:persp3d" />
    <marker
       style="overflow:visible"
       id="Arrow1Mend"
       refX="0"
       refY="0"
       orient="auto"
       inkscape:stockid="Arrow1Mend">
      <path
         inkscape:connector-curvature="0"
         transform="matrix(-0.4,0,0,-0.4,-4,0)"
         style="fill-rule:evenodd;stroke:#000000;stroke-width:1pt"
         d="M 0,0 5,-5 -12.5,0 5,5 0,0 Z"
         id="path3780" />
    </marker>
    <marker
       style="overflow:visible"
       id="Arrow1Lstart"
       refX="0"
       refY="0"
       orient="auto"
       inkscape:stockid="Arrow1Lstart">
      <path
         inkscape:connector-curvature="0"
         transform="matrix(0.8,0,0,0.8,10,0)"
         style="fill-rule:evenodd;stroke:#000000;stroke-width:1pt"
         d="M 0,0 5,-5 -12.5,0 5,5 0,0 Z"
         id="path3771" />
    </marker>
    <inkscape:perspective
       id="perspective3927-1"
       inkscape:persp3d-origin="153.03301 : -83.84606 : 1"
       inkscape:vp_z="253.03301 : -50.512728 : 1"
       inkscape:vp_y="0 : 999.99998 : 0"
       inkscape:vp_x="53.033009 : -50.512728 : 1"
       sodipodi:type="inkscape:persp3d" />
    <marker
       style="overflow:visible"
       id="Arrow1Mend-2"
       refX="0"
       refY="0"
       orient="auto"
       inkscape:stockid="Arrow1Mend">
      <path
         inkscape:connector-curvature="0"
         transform="matrix(-0.4,0,0,-0.4,-4,0)"
         style="fill-rule:evenodd;stroke:#000000;stroke-width:1pt"
         d="M 0,0 5,-5 -12.5,0 5,5 0,0 Z"
         id="path3780-7" />
    </marker>
    <marker
       style="overflow:visible"
       id="Arrow1Lstart-0"
       refX="0"
       refY="0"
       orient="auto"
       inkscape:stockid="Arrow1Lstart">
      <path
         inkscape:connector-curvature="0"
         transform="matrix(0.8,0,0,0.8,10,0)"
         style="fill-rule:evenodd;stroke:#000000;stroke-width:1pt"
         d="M 0,0 5,-5 -12.5,0 5,5 0,0 Z"
         id="path3771-9" />
    </marker>
    <linearGradient
       gradientUnits="userSpaceOnUse"
       y2="942.50732"
       x2="167.66454"
       y1="908.41461"
       x1="195.17279"
       id="linearGradient4262"
       xlink:href="#linearGradient4228"
       inkscape:collect="always" />
    <linearGradient
       gradientUnits="userSpaceOnUse"
       y2="1011.4261"
       x2="15.808562"
       y1="1047.311"
       x1="7.4700108"
       id="linearGradient4264"
       xlink:href="#linearGradient4228"
       inkscape:collect="always" />
    <linearGradient
       gradientUnits="userSpaceOnUse"
       y2="927.01935"
       x2="76.919456"
       y1="959.09167"
       x1="14.571068"
       id="linearGradient4266"
       xlink:href="#linearGradient4228"
       inkscape:collect="always" />
    <linearGradient
       gradientUnits="userSpaceOnUse"
       y2="1022.0461"
       x2="57.001015"
       y1="973.8114"
       x1="112.29647"
       id="linearGradient4268"
       xlink:href="#linearGradient4228"
       inkscape:collect="always" />
    <linearGradient
       gradientUnits="userSpaceOnUse"
       y2="1023.5184"
       x2="177.77835"
       y1="985.8902"
       x1="135.56499"
       id="linearGradient4270"
       xlink:href="#linearGradient4228"
       inkscape:collect="always" />
    <marker
       style="overflow:visible;"
       id="Arrow1Mend-3"
       refX="0.0"
       refY="0.0"
       orient="auto"
       inkscape:stockid="Arrow1Mend">
      <path
         transform="scale(0.4) rotate(180) translate(10,0)"
         style="fill-rule:evenodd;stroke:#000000;stroke-width:1.0pt;"
         d="M 0.0,0.0 L 5.0,-5.0 L -12.5,0.0 L 5.0,5.0 L 0.0,0.0 z "
         id="path3780-75" />
    </marker>
    <marker
       style="overflow:visible"
       id="Arrow1Lstart-9"
       refX="0.0"
       refY="0.0"
       orient="auto"
       inkscape:stockid="Arrow1Lstart">
      <path
         transform="scale(0.8) translate(12.5,0)"
         style="fill-rule:evenodd;stroke:#000000;stroke-width:1.0pt"
         d="M 0.0,0.0 L 5.0,-5.0 L -12.5,0.0 L 5.0,5.0 L 0.0,0.0 z "
         id="path3771-2" />
    </marker>
    <radialGradient
       id="radialGradient5640"
       gradientUnits="userSpaceOnUse"
       cy="139.37"
       cx="99.958"
       gradientTransform="matrix(-0.21405,1.3758,-1.2457,-0.19403,303.11,18.168)"
       r="45.07">
      <stop
         id="stop4611"
         stop-opacity="0"
         offset="0" />
      <stop
         id="stop4623"
         stop-opacity=".023529"
         offset=".49270" />
      <stop
         id="stop4621"
         stop-opacity=".035294"
         offset=".57087" />
      <stop
         id="stop4619"
         stop-opacity=".066667"
         offset=".63646" />
      <stop
         id="stop4617"
         stop-opacity=".14894"
         offset=".69579" />
      <stop
         id="stop4625"
         stop-opacity=".21277"
         offset=".73030" />
      <stop
         id="stop4613"
         stop-opacity=".54610"
         offset="1" />
    </radialGradient>
    <clipPath
       id="clipPath8976"
       clipPathUnits="userSpaceOnUse">
      <path
         id="path8978"
         d="m0 0z" />
    </clipPath>
    <clipPath
       id="clipPath11392"
       clipPathUnits="userSpaceOnUse">
      <path
         id="path11394"
         d="m0 0z" />
    </clipPath>
    <clipPath
       id="clipPath2556"
       clipPathUnits="userSpaceOnUse">
      <path
         id="path2558"
         d="m0 0z" />
    </clipPath>
    <clipPath
       id="clipPath2462"
       clipPathUnits="userSpaceOnUse">
      <path
         id="path2464"
         d="m0 0z" />
    </clipPath>
    <marker
       style="overflow:visible;"
       id="Arrow1Mend-6"
       refX="0.0"
       refY="0.0"
       orient="auto"
       inkscape:stockid="Arrow1Mend">
      <path
         transform="scale(0.4) rotate(180) translate(10,0)"
         style="fill-rule:evenodd;stroke:#000000;stroke-width:1.0pt;"
         d="M 0.0,0.0 L 5.0,-5.0 L -12.5,0.0 L 5.0,5.0 L 0.0,0.0 z "
         id="path3780-1" />
    </marker>
    <marker
       style="overflow:visible"
       id="Arrow1Lstart-2"
       refX="0.0"
       refY="0.0"
       orient="auto"
       inkscape:stockid="Arrow1Lstart">
      <path
         transform="scale(0.8) translate(12.5,0)"
         style="fill-rule:evenodd;stroke:#000000;stroke-width:1.0pt"
         d="M 0.0,0.0 L 5.0,-5.0 L -12.5,0.0 L 5.0,5.0 L 0.0,0.0 z "
         id="path3771-93" />
    </marker>
    <marker
       style="overflow:visible;"
       id="Arrow1Mend-36"
       refX="0.0"
       refY="0.0"
       orient="auto"
       inkscape:stockid="Arrow1Mend">
      <path
         transform="scale(0.4) rotate(180) translate(10,0)"
         style="fill-rule:evenodd;stroke:#000000;stroke-width:1.0pt;"
         d="M 0.0,0.0 L 5.0,-5.0 L -12.5,0.0 L 5.0,5.0 L 0.0,0.0 z "
         id="path3780-10" />
    </marker>
    <marker
       style="overflow:visible"
       id="Arrow1Lstart-6"
       refX="0.0"
       refY="0.0"
       orient="auto"
       inkscape:stockid="Arrow1Lstart">
      <path
         transform="scale(0.8) translate(12.5,0)"
         style="fill-rule:evenodd;stroke:#000000;stroke-width:1.0pt"
         d="M 0.0,0.0 L 5.0,-5.0 L -12.5,0.0 L 5.0,5.0 L 0.0,0.0 z "
         id="path3771-3" />
    </marker>
    <radialGradient
       id="radialGradient5640-2"
       gradientUnits="userSpaceOnUse"
       cy="139.37"
       cx="99.958"
       gradientTransform="matrix(-0.21405,1.3758,-1.2457,-0.19403,303.11,18.168)"
       r="45.07">
      <stop
         id="stop4611-0"
         stop-opacity="0"
         offset="0" />
      <stop
         id="stop4623-6"
         stop-opacity=".023529"
         offset=".49270" />
      <stop
         id="stop4621-1"
         stop-opacity=".035294"
         offset=".57087" />
      <stop
         id="stop4619-5"
         stop-opacity=".066667"
         offset=".63646" />
      <stop
         id="stop4617-5"
         stop-opacity=".14894"
         offset=".69579" />
      <stop
         id="stop4625-4"
         stop-opacity=".21277"
         offset=".73030" />
      <stop
         id="stop4613-7"
         stop-opacity=".54610"
         offset="1" />
    </radialGradient>
    <clipPath
       id="clipPath8976-6"
       clipPathUnits="userSpaceOnUse">
      <path
         id="path8978-5"
         d="m0 0z" />
    </clipPath>
    <clipPath
       id="clipPath11392-6"
       clipPathUnits="userSpaceOnUse">
      <path
         id="path11394-9"
         d="m0 0z" />
    </clipPath>
    <clipPath
       id="clipPath2556-3"
       clipPathUnits="userSpaceOnUse">
      <path
         id="path2558-7"
         d="m0 0z" />
    </clipPath>
    <clipPath
       id="clipPath2462-4"
       clipPathUnits="userSpaceOnUse">
      <path
         id="path2464-5"
         d="m0 0z" />
    </clipPath>
  </defs>
  <sodipodi:namedview
     id="base"
     pagecolor="#ffffff"
     bordercolor="#666666"
     borderopacity="1.0"
     inkscape:pageopacity="0.0"
     inkscape:pageshadow="2"
     inkscape:zoom="1.979899"
     inkscape:cx="132.87728"
     inkscape:cy="117.43228"
     inkscape:document-units="px"
     inkscape:current-layer="layer1"
     showgrid="false"
     inkscape:window-width="1855"
     inkscape:window-height="1056"
     inkscape:window-x="65"
     inkscape:window-y="24"
     inkscape:window-maximized="1"
     units="px" />
  <metadata
     id="metadata7">
    <rdf:RDF>
      <cc:Work
         rdf:about="">
        <dc:format>image/svg+xml</dc:format>
        <dc:type
           rdf:resource="http://purl.org/dc/dcmitype/StillImage" />
        <dc:title></dc:title>
      </cc:Work>
    </rdf:RDF>
  </metadata>
  <g
     inkscape:label="Layer 1"
     inkscape:groupmode="layer"
     id="layer1"
     transform="translate(0,-852.36216)">
    <rect
       style="fill:#ffffff;fill-opacity:1;stroke:#000000;stroke-width:11.45348835;stroke-linecap:round;stroke-linejoin:bevel;stroke-miterlimit:4;stroke-dasharray:none;stroke-dashoffset:0;stroke-opacity:1"
       id="rect2990"
       width="188.54367"
       height="188.54364"
       x="5.7088814"
       y="858.09235"
       ry="24.035305"
       transform="matrix(1,-2.0021293e-5,2.0250113e-5,1,0,0)" />
    <path
       style="fill:#000000;fill-opacity:1;fill-rule:evenodd;stroke:#000000;stroke-width:1.39111876px;stroke-linecap:butt;stroke-linejoin:miter;stroke-opacity:1"
       d="m 19.243365,934.46681 0.003,-50.05716 c -0.700795,-6.75143 1.003631,-12.28794 14.150663,-12.04456 l 63.372912,0.10022 -0.0094,2.92833 -8.696084,0.19358 -0.343051,9.30992 -53.332359,0.81896 0.244749,15.04076 38.587687,-1.04908 0.158116,4.35123 -9.06213,0.14491 0.433546,8.35506 -30.117219,0.7868 0.289726,21.18017 z"
       id="path4909"
       inkscape:connector-curvature="0"
       sodipodi:nodetypes="cccccccccccccccc" />
    <path
       style="fill:#646466;fill-opacity:1;fill-rule:evenodd;stroke:none;stroke-width:1.73694861px;stroke-linecap:butt;stroke-linejoin:miter;stroke-opacity:1"
       d="m 64.01957,919.39475 -25.216102,0.10602 0.507761,29.60199 6.567603,0.0405 -0.42954,-5.55611 5.284707,8.73369 15.741844,0.7095 -17.083672,-14.42307 14.910745,0.70561 z m -16.767597,6.61257 10.550125,-0.20153 0.177145,6.98468 -10.429459,0.0295 z"
       id="path4911"
       inkscape:connector-curvature="0"
       sodipodi:nodetypes="ccccccccccccccc" />
    <path
       style="fill:#000000;fill-opacity:1;fill-rule:evenodd;stroke:#000000;stroke-width:0.89403969px;stroke-linecap:butt;stroke-linejoin:miter;stroke-opacity:1"
       d="m 68.025902,918.27123 0.41601,20.97629 15.133394,0.0519 -0.08733,-2.91061 -11.040877,0.19463 -0.100265,-4.95956 10.881179,-0.12198 0.01294,-4.48983 -10.634163,-0.006 -0.287846,-5.18404 11.026608,-0.24398 -0.182388,-19.0385 -3.026649,-0.0861 0.29454,6.32806 -10.046157,0.69665 0.461313,8.98475 z"
       id="path4913"
       inkscape:connector-curvature="0"
       sodipodi:nodetypes="ccccccccccccccccc" />
    <path
       style="fill:#000000;fill-opacity:1;fill-rule:evenodd;stroke:#000000;stroke-width:0.89004046px;stroke-linecap:butt;stroke-linejoin:miter;stroke-opacity:1"
       d="m 89.026517,909.99593 -0.133851,-21.16359 6.243244,-0.32743 0.0137,-8.76445 7.91394,-0.18845 -0.0509,3.51044 -4.600569,0.18993 0.10396,9.03744 -6.014035,0.0493 0.343331,5.68775 6.32489,-0.0453 0.219391,3.49269 -6.332085,0.057 -0.03323,4.87111 7.124127,0.22116 0.0749,3.53099 z"
       id="path4913-6"
       inkscape:connector-curvature="0"
       sodipodi:nodetypes="ccccccccccccccccc" />
    <path
       style="fill:#000000;fill-opacity:1;fill-rule:evenodd;stroke:#000000;stroke-width:1.4029355px;stroke-linecap:butt;stroke-linejoin:miter;stroke-opacity:1"
       d="m 109.48563,886.11535 -4.09721,0.0748 0.74566,30.63533 -18.726242,-9e-5 0.413543,22.15894 10.030474,-0.15479 -0.384459,-13.66774 23.452494,-0.14577 -0.30616,-13.39001 8.90063,-0.22813 0.37658,22.20136 -21.28226,-0.34392 0.30545,16.87081 10.40769,-0.13467 -0.55034,-7.56834 24.7829,-0.102 -0.0155,-18.62685 -2.71694,-0.0631 0.1081,-25.30096 2.90397,-0.0328 -0.11361,-4.52985 -2.72049,0.0871 0.0874,-18.71264 2.35365,-2.14552 -0.0515,-2.50651 -14.1427,0.2247 0.0127,30.76677 -8.53066,-0.1042 -0.66332,-30.63753 -10.96969,0.23985 z"
       id="path4930"
       inkscape:connector-curvature="0"
       sodipodi:nodetypes="ccccccccccccccccccccccccccccccc" />
    <path
       style="fill:#646466;fill-opacity:1;fill-rule:evenodd;stroke:none;stroke-width:1.28995824px;stroke-linecap:butt;stroke-linejoin:miter;stroke-opacity:1"
       d="m 161.19238,868.86363 -9.55664,6.22265 -0.11914,17.47114 6.07353,0.0814 -0.11627,-9.24199 9.11914,0.0879 0.69922,8.97969 5.50258,0.207 -0.73696,-17.08901 z m 0.16015,4.47461 5.17829,3.75028 0.0893,3.92717 -9.19615,-0.26702 -0.44698,-4.46484 z"
       id="path4932"
       inkscape:connector-curvature="0"
       sodipodi:nodetypes="cccccccccccccccc" />
    <path
       style="fill:#000000;fill-opacity:1;fill-rule:evenodd;stroke:#000000;stroke-width:1.19750082px;stroke-linecap:butt;stroke-linejoin:miter;stroke-opacity:1"
       d="m 172.41787,904.54888 -0.14242,-4.87519 -21.24102,0.22997 0.41015,22.55033 23.25062,0.009 0.008,-7.59977 -3.44441,0.25436 0.15165,3.35782 -14.31598,-0.4413 -0.39171,-14.5432 12.0428,-0.72849 0.22087,2.49 z"
       id="path4934"
       inkscape:connector-curvature="0"
       sodipodi:nodetypes="ccccccccccccc" />
    <path
       style="fill:#000000;fill-opacity:1;fill-rule:evenodd;stroke:#000000;stroke-width:1.16231513px;stroke-linecap:butt;stroke-linejoin:miter;stroke-opacity:1"
       d="m 151.6242,926.18025 -0.10017,22.97692 7.03754,0.10894 0.14811,-10.25274 5.21309,0.12201 0.32466,6.32477 5.00189,0.20775 0.44183,6.13942 13.51685,-3.70577 -19.89713,-11.94507 10.88231,-7.74089 -0.12236,-2.31142 -7.49463,-0.12476 -0.138,1.77775 -8.65602,5.85021 -0.36882,-7.57965 z"
       id="path4936"
       inkscape:connector-curvature="0"
       sodipodi:nodetypes="ccccccccccccccccc" />
    <path
       style="fill:#000000;fill-opacity:1;fill-rule:evenodd;stroke:#000000;stroke-width:1.72707653px;stroke-linecap:butt;stroke-linejoin:miter;stroke-opacity:1"
       d="m 122.86973,960.28684 -3.37224,0.17387 0.18793,3.7715 -13.70463,-0.11806 -0.24635,-3.62987 -2.83294,0.0326 -12.519711,9.03648 0.008,48.30264 14.784391,9.1006 21.00835,-0.2519 5.784,-5.7952 12.03195,7.2169 -10.59689,-9.6546 3.51493,-3.7615 -0.82952,-47.15421 z m -15.13966,14.67836 11.32076,-0.1894 6.07135,3.59414 0.34176,32.30206 -3.5672,-3.7113 -5.17938,4.5591 5.86501,2.9269 -14.47049,-0.1629 -4.99487,-4.4405 0.085,-31.16901 z"
       id="path4938"
       inkscape:connector-curvature="0"
       sodipodi:nodetypes="ccccccccccccccccccccccccccc" />
    <path
       style="fill:#646466;fill-opacity:1;fill-rule:evenodd;stroke:none;stroke-width:1.27408695px;stroke-linecap:butt;stroke-linejoin:miter;stroke-opacity:1"
       d="m 142.96825,989.0543 12.74439,-0.21767 -0.0258,-3.61722 3.20393,-0.31426 0.25358,3.98412 4.45651,-0.0631 -0.009,-39.73039 -3.48199,0.0784 -0.0606,6.76513 -4.09059,-0.15051 0.26495,24.01408 -2.65756,0.33498 -0.23976,4.88109 -3.59498,0.22419 0.0544,-19.08636 -6.88467,-0.30485 z"
       id="path4943"
       inkscape:connector-curvature="0"
       sodipodi:nodetypes="ccccccccccccccccc" />
    <path
       style="fill:#000000;fill-opacity:1;fill-rule:evenodd;stroke:#000000;stroke-width:1.28644145px;stroke-linecap:butt;stroke-linejoin:miter;stroke-opacity:1"
       d="m 167.11619,962.96099 0.2869,25.63265 2.03548,0.046 0.14449,3.3011 12.9955,-0.0181 -0.0502,-3.54925 -10.446,-0.20267 -0.11187,-6.84595 6.75672,-0.0915 -0.19776,-4.52613 -6.64336,-0.27238 -0.20975,-4.94145 9.64408,-0.31543 0.19602,-9.42099 -11.52657,4.54112 -0.27729,-3.49291 z"
       id="path4945"
       inkscape:connector-curvature="0"
       sodipodi:nodetypes="ccccccccccccccccc" />
    <path
       style="fill:#000000;fill-opacity:1;fill-rule:evenodd;stroke:#000000;stroke-width:1.76874208px;stroke-linecap:butt;stroke-linejoin:miter;stroke-opacity:1"
       d="m 165.73199,997.00738 -0.14738,-2.59416 -18.08871,0.10599 -2.96786,4.10275 0.0289,6.29124 3.18971,3.2108 11.76899,-0.049 0.32796,6.6414 -2.16999,1.7236 -9.33914,-0.1531 0.0161,1.6812 -3.87062,0.051 -0.0802,1.9231 2.74672,0.097 14.14141,0.072 3.36294,-3.6419 0.044,-6.9557 -4.16573,-0.063 -0.32884,-4.7093 -10.5293,0.2428 -0.11589,-6.07114 11.42929,0.37555 -0.17105,-2.36686 z"
       id="path4947"
       inkscape:connector-curvature="0"
       sodipodi:nodetypes="cccccccccccccccccccccccc" />
    <path
       style="fill:#000000;fill-opacity:1;fill-rule:evenodd;stroke:#000000;stroke-width:1.6257px;stroke-linecap:butt;stroke-linejoin:miter;stroke-opacity:1"
       d="m 173.08472,1025.3174 -0.52365,-19.1005 -5.75705,0.066 -0.37998,-4.9924 16.21506,0.082 0.11492,4.2226 -5.61893,0.1732 0.67907,19.5986 z"
       id="path4949"
       inkscape:connector-curvature="0"
       sodipodi:nodetypes="ccccccccc" />
    <g
       id="g5035">
      <path
         inkscape:connector-curvature="0"
         id="path5015"
         d="m 18.571429,958.79074 2.142857,70.35716 65.178571,-0.5357 0.178572,-68.39289 z"
         style="fill:#000000;fill-opacity:1;fill-rule:evenodd;stroke:none;stroke-width:1px;stroke-linecap:butt;stroke-linejoin:miter;stroke-opacity:1" />
      <g
         id="g5029">
        <path
           style="fill:#ffffff;fill-opacity:1;fill-rule:evenodd;stroke:none;stroke-width:0.73640925px;stroke-linecap:butt;stroke-linejoin:miter;stroke-opacity:1"
           d="m 26.800174,970.91105 -0.251868,-7.6774 24.188353,-0.26934 0.447596,16.55781 -19.077711,0.66635 0.04413,6.66468 21.539423,-1.14174 -0.295344,4.56698 -25.497998,0.26348 -0.269241,-14.74713 18.080573,-0.32287 -0.241801,-7.94204 -14.339076,0.20485 0.04348,3.69747 z"
           id="path5004"
           inkscape:connector-curvature="0"
           sodipodi:nodetypes="ccccccccccccccc" />
        <path
           style="fill:#ffffff;fill-opacity:1;fill-rule:evenodd;stroke:none;stroke-width:0.73704338px;stroke-linecap:butt;stroke-linejoin:miter;stroke-opacity:1"
           d="m 81.655939,964.25913 -22.97212,0.32777 0.422469,26.01799 22.760885,-0.49103 z m -17.746767,4.99971 12.770484,-0.41724 0.846575,17.75409 -13.443661,0.40877 z"
           id="path5006"
           inkscape:connector-curvature="0"
           sodipodi:nodetypes="cccccccccc" />
        <path
           style="fill:#ffffff;fill-opacity:1;fill-rule:evenodd;stroke:none;stroke-width:0.76944846px;stroke-linecap:butt;stroke-linejoin:miter;stroke-opacity:1"
           d="m 53.464866,997.59539 0.412602,26.17271 -5.982739,-0.092 -0.928356,-26.53864 z"
           id="path5011"
           inkscape:connector-curvature="0" />
        <path
           style="fill:#ffffff;fill-opacity:1;fill-rule:evenodd;stroke:none;stroke-width:0.75489026px;stroke-linecap:butt;stroke-linejoin:miter;stroke-opacity:1"
           d="m 60.736843,997.25048 20.537378,-0.2893 0.471041,28.06512 -4.804617,-0.097 -0.753664,-22.182 -15.732763,-0.2894 z"
           id="path5013"
           inkscape:connector-curvature="0" />
      </g>
    </g>
  </g>
</svg>
